<svg width="25" height="25" viewBox="0 0 25 25" fill="none" xmlns="http://www.w3.org/2000/svg">
<path d="M22.917 17.6253V20.7503C22.9182 21.0404 22.8587 21.3275 22.7425 21.5934C22.6263 21.8592 22.4558 22.0978 22.2421 22.2939C22.0283 22.49 21.7759 22.6393 21.5011 22.7323C21.2263 22.8252 20.9351 22.8597 20.6461 22.8336C17.4408 22.4853 14.3618 21.39 11.6566 19.6357C9.13972 18.0364 7.00588 15.9026 5.40657 13.3857C3.64613 10.6682 2.55057 7.57424 2.20865 4.35446C2.18262 4.0664 2.21685 3.77608 2.30917 3.50198C2.40149 3.22788 2.54987 2.97601 2.74486 2.76239C2.93986 2.54878 3.1772 2.37811 3.44177 2.26125C3.70633 2.14439 3.99234 2.08389 4.28157 2.08362H7.40657C7.91209 2.07865 8.40218 2.25766 8.78549 2.5873C9.16879 2.91694 9.41915 3.37471 9.4899 3.87529C9.6218 4.87536 9.86641 5.8573 10.2191 6.80237C10.3592 7.17521 10.3895 7.58041 10.3065 7.96996C10.2234 8.3595 10.0304 8.71707 9.75032 9.00029L8.4274 10.3232C9.91027 12.9311 12.0695 15.0903 14.6774 16.5732L16.0003 15.2503C16.2835 14.9702 16.6411 14.7772 17.0306 14.6941C17.4202 14.6111 17.8254 14.6414 18.1982 14.7815C19.1433 15.1342 20.1252 15.3788 21.1253 15.5107C21.6313 15.5821 22.0934 15.837 22.4238 16.2268C22.7541 16.6167 22.9297 17.1144 22.917 17.6253Z" stroke="#0553C8" stroke-width="2" stroke-linecap="round" stroke-linejoin="round"/>
</svg>
