<svg width="24" height="24" viewBox="0 0 24 24" fill="none" xmlns="http://www.w3.org/2000/svg">
<path d="M21 9.99998C21 17 12 23 12 23C12 23 3 17 3 9.99998C3 7.61304 3.94821 5.32385 5.63604 3.63602C7.32387 1.9482 9.61305 0.999985 12 0.999985C14.3869 0.999985 16.6761 1.9482 18.364 3.63602C20.0518 5.32385 21 7.61304 21 9.99998Z" stroke="#0553C8" stroke-width="2" stroke-linecap="round" stroke-linejoin="round"/>
<path d="M12 13C13.6569 13 15 11.6568 15 9.99997C15 8.34312 13.6569 6.99997 12 6.99997C10.3431 6.99997 9 8.34312 9 9.99997C9 11.6568 10.3431 13 12 13Z" stroke="#0553C8" stroke-width="2" stroke-linecap="round" stroke-linejoin="round"/>
</svg>
