<svg width="28" height="28" viewBox="0 0 28 28" fill="none" xmlns="http://www.w3.org/2000/svg">
<path d="M19.833 24.5V22.1667C19.833 20.929 19.3414 19.742 18.4662 18.8668C17.591 17.9917 16.404 17.5 15.1663 17.5H5.83302C4.59534 17.5 3.40836 17.9917 2.53319 18.8668C1.65802 19.742 1.16635 20.929 1.16635 22.1667V24.5" stroke="#0553C8" stroke-width="2" stroke-linecap="round" stroke-linejoin="round"/>
<path d="M10.5003 12.8333C13.0776 12.8333 15.167 10.744 15.167 8.16667C15.167 5.58934 13.0776 3.5 10.5003 3.5C7.92299 3.5 5.83365 5.58934 5.83365 8.16667C5.83365 10.744 7.92299 12.8333 10.5003 12.8333Z" stroke="#0553C8" stroke-width="2" stroke-linecap="round" stroke-linejoin="round"/>
<path d="M26.8336 24.5002V22.1669C26.8329 21.1329 26.4887 20.1284 25.8552 19.3112C25.2218 18.494 24.3348 17.9104 23.3336 17.6519" stroke="#0553C8" stroke-width="2" stroke-linecap="round" stroke-linejoin="round"/>
<path d="M18.6664 3.65186C19.6702 3.90887 20.5599 4.49267 21.1953 5.31122C21.8306 6.12976 22.1755 7.13649 22.1755 8.17269C22.1755 9.20889 21.8306 10.2156 21.1953 11.0342C20.5599 11.8527 19.6702 12.4365 18.6664 12.6935" stroke="#0553C8" stroke-width="2" stroke-linecap="round" stroke-linejoin="round"/>
</svg>
