<svg width="38" height="38" viewBox="0 0 38 38" fill="none" xmlns="http://www.w3.org/2000/svg">
<path d="M4.75 28.5V19C4.75 15.2207 6.25133 11.5961 8.92373 8.92373C11.5961 6.25134 15.2207 4.75 19 4.75C22.7793 4.75 26.4039 6.25134 29.0763 8.92373C31.7487 11.5961 33.25 15.2207 33.25 19V28.5" stroke="#0553C8" stroke-width="2" stroke-linecap="round" stroke-linejoin="round"/>
<path d="M33.25 30.0832C33.25 30.923 32.9164 31.7285 32.3225 32.3223C31.7286 32.9162 30.9232 33.2498 30.0833 33.2498H28.5C27.6601 33.2498 26.8547 32.9162 26.2608 32.3223C25.667 31.7285 25.3333 30.923 25.3333 30.0832V25.3332C25.3333 24.4933 25.667 23.6879 26.2608 23.094C26.8547 22.5001 27.6601 22.1665 28.5 22.1665H33.25V30.0832ZM4.75 30.0832C4.75 30.923 5.08363 31.7285 5.6775 32.3223C6.27136 32.9162 7.07681 33.2498 7.91667 33.2498H9.5C10.3399 33.2498 11.1453 32.9162 11.7392 32.3223C12.333 31.7285 12.6667 30.923 12.6667 30.0832V25.3332C12.6667 24.4933 12.333 23.6879 11.7392 23.094C11.1453 22.5001 10.3399 22.1665 9.5 22.1665H4.75V30.0832Z" stroke="#0553C8" stroke-width="2" stroke-linecap="round" stroke-linejoin="round"/>
</svg>
